<mxfile host="app.diagrams.net" modified="2023-07-13T10:09:20.218Z" agent="Mozilla/5.0 (Windows NT 10.0; Win64; x64) AppleWebKit/537.36 (KHTML, like Gecko) Chrome/114.0.0.0 Safari/537.36 Edg/114.0.1823.79" etag="3EW_xzj_6cWFLUeEGRQx" version="21.6.1" type="device" pages="6">
  <diagram name="createEmployee" id="2YBvvXClWsGukQMizWep">
    <mxGraphModel dx="1589" dy="470" grid="1" gridSize="10" guides="1" tooltips="1" connect="1" arrows="1" fold="1" page="1" pageScale="1" pageWidth="850" pageHeight="1100" math="0" shadow="0">
      <root>
        <mxCell id="0" />
        <mxCell id="1" parent="0" />
        <mxCell id="aM9ryv3xv72pqoxQDRHE-1" value="API Gateway" style="shape=umlLifeline;perimeter=lifelinePerimeter;whiteSpace=wrap;html=1;container=0;dropTarget=0;collapsible=0;recursiveResize=0;outlineConnect=0;portConstraint=eastwest;newEdgeStyle={&quot;edgeStyle&quot;:&quot;elbowEdgeStyle&quot;,&quot;elbow&quot;:&quot;vertical&quot;,&quot;curved&quot;:0,&quot;rounded&quot;:0};" parent="1" vertex="1">
          <mxGeometry x="50" y="40" width="100" height="200" as="geometry" />
        </mxCell>
        <mxCell id="aM9ryv3xv72pqoxQDRHE-2" value="" style="html=1;points=[];perimeter=orthogonalPerimeter;outlineConnect=0;targetShapes=umlLifeline;portConstraint=eastwest;newEdgeStyle={&quot;edgeStyle&quot;:&quot;elbowEdgeStyle&quot;,&quot;elbow&quot;:&quot;vertical&quot;,&quot;curved&quot;:0,&quot;rounded&quot;:0};" parent="aM9ryv3xv72pqoxQDRHE-1" vertex="1">
          <mxGeometry x="45" y="70" width="10" height="100" as="geometry" />
        </mxCell>
        <mxCell id="aM9ryv3xv72pqoxQDRHE-3" value="employee/" style="html=1;verticalAlign=bottom;startArrow=oval;endArrow=block;startSize=8;edgeStyle=elbowEdgeStyle;elbow=vertical;curved=0;rounded=0;" parent="aM9ryv3xv72pqoxQDRHE-1" target="aM9ryv3xv72pqoxQDRHE-2" edge="1">
          <mxGeometry relative="1" as="geometry">
            <mxPoint x="-60" y="90" as="sourcePoint" />
          </mxGeometry>
        </mxCell>
        <mxCell id="aM9ryv3xv72pqoxQDRHE-5" value="Employee Controller" style="shape=umlLifeline;perimeter=lifelinePerimeter;whiteSpace=wrap;html=1;container=0;dropTarget=0;collapsible=0;recursiveResize=0;outlineConnect=0;portConstraint=eastwest;newEdgeStyle={&quot;edgeStyle&quot;:&quot;elbowEdgeStyle&quot;,&quot;elbow&quot;:&quot;vertical&quot;,&quot;curved&quot;:0,&quot;rounded&quot;:0};" parent="1" vertex="1">
          <mxGeometry x="220" y="40" width="100" height="200" as="geometry" />
        </mxCell>
        <mxCell id="aM9ryv3xv72pqoxQDRHE-6" value="" style="html=1;points=[];perimeter=orthogonalPerimeter;outlineConnect=0;targetShapes=umlLifeline;portConstraint=eastwest;newEdgeStyle={&quot;edgeStyle&quot;:&quot;elbowEdgeStyle&quot;,&quot;elbow&quot;:&quot;vertical&quot;,&quot;curved&quot;:0,&quot;rounded&quot;:0};" parent="aM9ryv3xv72pqoxQDRHE-5" vertex="1">
          <mxGeometry x="45" y="80" width="10" height="80" as="geometry" />
        </mxCell>
        <mxCell id="aM9ryv3xv72pqoxQDRHE-7" value="employee" style="html=1;verticalAlign=bottom;endArrow=block;edgeStyle=elbowEdgeStyle;elbow=vertical;curved=0;rounded=0;" parent="1" source="aM9ryv3xv72pqoxQDRHE-2" target="aM9ryv3xv72pqoxQDRHE-6" edge="1">
          <mxGeometry relative="1" as="geometry">
            <mxPoint x="195" y="130" as="sourcePoint" />
            <Array as="points">
              <mxPoint x="210" y="130" />
              <mxPoint x="180" y="120" />
            </Array>
          </mxGeometry>
        </mxCell>
        <mxCell id="ID6pwNwmJ9Y6ppV090Uf-1" value="Employee Service" style="shape=umlLifeline;perimeter=lifelinePerimeter;whiteSpace=wrap;html=1;container=0;dropTarget=0;collapsible=0;recursiveResize=0;outlineConnect=0;portConstraint=eastwest;newEdgeStyle={&quot;edgeStyle&quot;:&quot;elbowEdgeStyle&quot;,&quot;elbow&quot;:&quot;vertical&quot;,&quot;curved&quot;:0,&quot;rounded&quot;:0};" parent="1" vertex="1">
          <mxGeometry x="375" y="40" width="100" height="200" as="geometry" />
        </mxCell>
        <mxCell id="ID6pwNwmJ9Y6ppV090Uf-2" value="" style="html=1;points=[];perimeter=orthogonalPerimeter;outlineConnect=0;targetShapes=umlLifeline;portConstraint=eastwest;newEdgeStyle={&quot;edgeStyle&quot;:&quot;elbowEdgeStyle&quot;,&quot;elbow&quot;:&quot;vertical&quot;,&quot;curved&quot;:0,&quot;rounded&quot;:0};" parent="ID6pwNwmJ9Y6ppV090Uf-1" vertex="1">
          <mxGeometry x="45" y="80" width="10" height="70" as="geometry" />
        </mxCell>
        <mxCell id="ID6pwNwmJ9Y6ppV090Uf-3" value="Employee Repository" style="shape=umlLifeline;perimeter=lifelinePerimeter;whiteSpace=wrap;html=1;container=0;dropTarget=0;collapsible=0;recursiveResize=0;outlineConnect=0;portConstraint=eastwest;newEdgeStyle={&quot;edgeStyle&quot;:&quot;elbowEdgeStyle&quot;,&quot;elbow&quot;:&quot;vertical&quot;,&quot;curved&quot;:0,&quot;rounded&quot;:0};" parent="1" vertex="1">
          <mxGeometry x="530" y="40" width="100" height="200" as="geometry" />
        </mxCell>
        <mxCell id="ID6pwNwmJ9Y6ppV090Uf-4" value="" style="html=1;points=[];perimeter=orthogonalPerimeter;outlineConnect=0;targetShapes=umlLifeline;portConstraint=eastwest;newEdgeStyle={&quot;edgeStyle&quot;:&quot;elbowEdgeStyle&quot;,&quot;elbow&quot;:&quot;vertical&quot;,&quot;curved&quot;:0,&quot;rounded&quot;:0};" parent="ID6pwNwmJ9Y6ppV090Uf-3" vertex="1">
          <mxGeometry x="45" y="80" width="10" height="60" as="geometry" />
        </mxCell>
        <mxCell id="ID6pwNwmJ9Y6ppV090Uf-5" style="edgeStyle=elbowEdgeStyle;rounded=0;orthogonalLoop=1;jettySize=auto;html=1;elbow=vertical;curved=0;" parent="1" edge="1">
          <mxGeometry relative="1" as="geometry">
            <mxPoint x="280" y="140" as="sourcePoint" />
            <mxPoint x="420" y="140" as="targetPoint" />
          </mxGeometry>
        </mxCell>
        <mxCell id="ID6pwNwmJ9Y6ppV090Uf-6" value="createEmployee(employee)" style="text;html=1;align=center;verticalAlign=middle;resizable=0;points=[];autosize=1;strokeColor=none;fillColor=none;" parent="1" vertex="1">
          <mxGeometry x="260" y="118" width="170" height="30" as="geometry" />
        </mxCell>
        <mxCell id="ID6pwNwmJ9Y6ppV090Uf-7" style="edgeStyle=elbowEdgeStyle;rounded=0;orthogonalLoop=1;jettySize=auto;html=1;elbow=vertical;curved=0;" parent="1" edge="1">
          <mxGeometry relative="1" as="geometry">
            <mxPoint x="425" y="148" as="sourcePoint" />
            <mxPoint x="574.5" y="148" as="targetPoint" />
          </mxGeometry>
        </mxCell>
        <mxCell id="ID6pwNwmJ9Y6ppV090Uf-8" value="save(Employee)" style="text;html=1;align=center;verticalAlign=middle;resizable=0;points=[];autosize=1;strokeColor=none;fillColor=none;" parent="1" vertex="1">
          <mxGeometry x="445" y="128" width="110" height="30" as="geometry" />
        </mxCell>
        <mxCell id="ID6pwNwmJ9Y6ppV090Uf-9" value="return" style="html=1;verticalAlign=bottom;endArrow=open;dashed=1;endSize=8;edgeStyle=elbowEdgeStyle;elbow=vertical;curved=0;rounded=0;" parent="1" edge="1">
          <mxGeometry relative="1" as="geometry">
            <mxPoint x="425" y="170" as="targetPoint" />
            <Array as="points">
              <mxPoint x="510" y="170" />
            </Array>
            <mxPoint x="580" y="170" as="sourcePoint" />
          </mxGeometry>
        </mxCell>
        <mxCell id="ID6pwNwmJ9Y6ppV090Uf-10" value="return" style="html=1;verticalAlign=bottom;endArrow=open;dashed=1;endSize=8;edgeStyle=elbowEdgeStyle;elbow=vertical;curved=0;rounded=0;" parent="1" edge="1">
          <mxGeometry relative="1" as="geometry">
            <mxPoint x="280" y="180" as="targetPoint" />
            <Array as="points">
              <mxPoint x="352.5" y="180" />
            </Array>
            <mxPoint x="422.5" y="180" as="sourcePoint" />
          </mxGeometry>
        </mxCell>
        <mxCell id="ID6pwNwmJ9Y6ppV090Uf-11" value="return 201" style="html=1;verticalAlign=bottom;endArrow=open;dashed=1;endSize=8;edgeStyle=elbowEdgeStyle;elbow=horizontal;curved=0;rounded=0;" parent="1" edge="1">
          <mxGeometry relative="1" as="geometry">
            <mxPoint x="110" y="189.5" as="targetPoint" />
            <Array as="points">
              <mxPoint x="195" y="189.5" />
            </Array>
            <mxPoint x="265" y="189.5" as="sourcePoint" />
          </mxGeometry>
        </mxCell>
        <mxCell id="ID6pwNwmJ9Y6ppV090Uf-19" value="" style="group" parent="1" vertex="1" connectable="0">
          <mxGeometry x="710" y="110" width="120" height="110" as="geometry" />
        </mxCell>
        <mxCell id="ID6pwNwmJ9Y6ppV090Uf-18" value="" style="rounded=0;whiteSpace=wrap;html=1;" parent="ID6pwNwmJ9Y6ppV090Uf-19" vertex="1">
          <mxGeometry y="31.818181818181817" width="120" height="64.54545454545455" as="geometry" />
        </mxCell>
        <mxCell id="ID6pwNwmJ9Y6ppV090Uf-17" value="" style="group" parent="ID6pwNwmJ9Y6ppV090Uf-19" vertex="1" connectable="0">
          <mxGeometry y="50.90909090909091" width="120" height="59.090909090909086" as="geometry" />
        </mxCell>
        <mxCell id="ID6pwNwmJ9Y6ppV090Uf-15" value="" style="ellipse;whiteSpace=wrap;html=1;" parent="ID6pwNwmJ9Y6ppV090Uf-17" vertex="1">
          <mxGeometry y="22.727272727272727" width="120" height="36.36363636363636" as="geometry" />
        </mxCell>
        <mxCell id="ID6pwNwmJ9Y6ppV090Uf-16" value="" style="ellipse;whiteSpace=wrap;html=1;" parent="ID6pwNwmJ9Y6ppV090Uf-17" vertex="1">
          <mxGeometry width="120" height="36.36363636363636" as="geometry" />
        </mxCell>
        <mxCell id="ID6pwNwmJ9Y6ppV090Uf-13" value="" style="rounded=0;whiteSpace=wrap;html=1;" parent="ID6pwNwmJ9Y6ppV090Uf-19" vertex="1">
          <mxGeometry y="18.18181818181818" width="120" height="27.272727272727273" as="geometry" />
        </mxCell>
        <mxCell id="ID6pwNwmJ9Y6ppV090Uf-51" style="edgeStyle=orthogonalEdgeStyle;rounded=0;orthogonalLoop=1;jettySize=auto;html=1;exitX=0.5;exitY=1;exitDx=0;exitDy=0;" parent="ID6pwNwmJ9Y6ppV090Uf-19" source="ID6pwNwmJ9Y6ppV090Uf-14" target="ID6pwNwmJ9Y6ppV090Uf-16" edge="1">
          <mxGeometry relative="1" as="geometry" />
        </mxCell>
        <mxCell id="ID6pwNwmJ9Y6ppV090Uf-14" value="" style="ellipse;whiteSpace=wrap;html=1;" parent="ID6pwNwmJ9Y6ppV090Uf-19" vertex="1">
          <mxGeometry y="31.818181818181817" width="120" height="36.36363636363636" as="geometry" />
        </mxCell>
        <mxCell id="ID6pwNwmJ9Y6ppV090Uf-12" value="" style="ellipse;whiteSpace=wrap;html=1;" parent="ID6pwNwmJ9Y6ppV090Uf-19" vertex="1">
          <mxGeometry width="120" height="36.36363636363636" as="geometry" />
        </mxCell>
        <mxCell id="ID6pwNwmJ9Y6ppV090Uf-20" value="DB" style="text;html=1;align=center;verticalAlign=middle;resizable=0;points=[];autosize=1;strokeColor=none;fillColor=none;" parent="1" vertex="1">
          <mxGeometry x="750" y="40" width="40" height="30" as="geometry" />
        </mxCell>
        <mxCell id="ID6pwNwmJ9Y6ppV090Uf-22" value="" style="endArrow=classic;startArrow=classic;html=1;rounded=0;" parent="1" edge="1">
          <mxGeometry width="50" height="50" relative="1" as="geometry">
            <mxPoint x="590" y="155" as="sourcePoint" />
            <mxPoint x="710" y="155" as="targetPoint" />
          </mxGeometry>
        </mxCell>
      </root>
    </mxGraphModel>
  </diagram>
  <diagram id="DksYGZ9vNiy1fonWwkhB" name="deleteEmployee">
    <mxGraphModel dx="1239" dy="470" grid="1" gridSize="10" guides="1" tooltips="1" connect="1" arrows="1" fold="1" page="1" pageScale="1" pageWidth="500" pageHeight="500" math="0" shadow="0">
      <root>
        <mxCell id="0" />
        <mxCell id="1" parent="0" />
        <mxCell id="c8wQvJ74mTMDHzN-RfHY-1" value="API Gateway" style="shape=umlLifeline;perimeter=lifelinePerimeter;whiteSpace=wrap;html=1;container=0;dropTarget=0;collapsible=0;recursiveResize=0;outlineConnect=0;portConstraint=eastwest;newEdgeStyle={&quot;edgeStyle&quot;:&quot;elbowEdgeStyle&quot;,&quot;elbow&quot;:&quot;vertical&quot;,&quot;curved&quot;:0,&quot;rounded&quot;:0};" parent="1" vertex="1">
          <mxGeometry x="50" y="40" width="100" height="200" as="geometry" />
        </mxCell>
        <mxCell id="c8wQvJ74mTMDHzN-RfHY-2" value="" style="html=1;points=[];perimeter=orthogonalPerimeter;outlineConnect=0;targetShapes=umlLifeline;portConstraint=eastwest;newEdgeStyle={&quot;edgeStyle&quot;:&quot;elbowEdgeStyle&quot;,&quot;elbow&quot;:&quot;vertical&quot;,&quot;curved&quot;:0,&quot;rounded&quot;:0};" parent="c8wQvJ74mTMDHzN-RfHY-1" vertex="1">
          <mxGeometry x="45" y="70" width="10" height="100" as="geometry" />
        </mxCell>
        <mxCell id="c8wQvJ74mTMDHzN-RfHY-3" value="employee/id" style="html=1;verticalAlign=bottom;startArrow=oval;endArrow=block;startSize=8;edgeStyle=elbowEdgeStyle;elbow=vertical;curved=0;rounded=0;" parent="c8wQvJ74mTMDHzN-RfHY-1" target="c8wQvJ74mTMDHzN-RfHY-2" edge="1">
          <mxGeometry relative="1" as="geometry">
            <mxPoint x="-60" y="90" as="sourcePoint" />
          </mxGeometry>
        </mxCell>
        <mxCell id="c8wQvJ74mTMDHzN-RfHY-4" value="Employee Controller" style="shape=umlLifeline;perimeter=lifelinePerimeter;whiteSpace=wrap;html=1;container=0;dropTarget=0;collapsible=0;recursiveResize=0;outlineConnect=0;portConstraint=eastwest;newEdgeStyle={&quot;edgeStyle&quot;:&quot;elbowEdgeStyle&quot;,&quot;elbow&quot;:&quot;vertical&quot;,&quot;curved&quot;:0,&quot;rounded&quot;:0};" parent="1" vertex="1">
          <mxGeometry x="220" y="40" width="100" height="200" as="geometry" />
        </mxCell>
        <mxCell id="c8wQvJ74mTMDHzN-RfHY-5" value="" style="html=1;points=[];perimeter=orthogonalPerimeter;outlineConnect=0;targetShapes=umlLifeline;portConstraint=eastwest;newEdgeStyle={&quot;edgeStyle&quot;:&quot;elbowEdgeStyle&quot;,&quot;elbow&quot;:&quot;vertical&quot;,&quot;curved&quot;:0,&quot;rounded&quot;:0};" parent="c8wQvJ74mTMDHzN-RfHY-4" vertex="1">
          <mxGeometry x="45" y="80" width="10" height="80" as="geometry" />
        </mxCell>
        <mxCell id="c8wQvJ74mTMDHzN-RfHY-6" value="employee/id" style="html=1;verticalAlign=bottom;endArrow=block;edgeStyle=elbowEdgeStyle;elbow=vertical;curved=0;rounded=0;" parent="1" source="c8wQvJ74mTMDHzN-RfHY-2" target="c8wQvJ74mTMDHzN-RfHY-5" edge="1">
          <mxGeometry relative="1" as="geometry">
            <mxPoint x="195" y="130" as="sourcePoint" />
            <Array as="points">
              <mxPoint x="210" y="130" />
              <mxPoint x="180" y="120" />
            </Array>
          </mxGeometry>
        </mxCell>
        <mxCell id="c8wQvJ74mTMDHzN-RfHY-7" value="Employee &lt;br&gt;Service" style="shape=umlLifeline;perimeter=lifelinePerimeter;whiteSpace=wrap;html=1;container=0;dropTarget=0;collapsible=0;recursiveResize=0;outlineConnect=0;portConstraint=eastwest;newEdgeStyle={&quot;edgeStyle&quot;:&quot;elbowEdgeStyle&quot;,&quot;elbow&quot;:&quot;vertical&quot;,&quot;curved&quot;:0,&quot;rounded&quot;:0};" parent="1" vertex="1">
          <mxGeometry x="375" y="40" width="100" height="200" as="geometry" />
        </mxCell>
        <mxCell id="c8wQvJ74mTMDHzN-RfHY-8" value="" style="html=1;points=[];perimeter=orthogonalPerimeter;outlineConnect=0;targetShapes=umlLifeline;portConstraint=eastwest;newEdgeStyle={&quot;edgeStyle&quot;:&quot;elbowEdgeStyle&quot;,&quot;elbow&quot;:&quot;vertical&quot;,&quot;curved&quot;:0,&quot;rounded&quot;:0};" parent="c8wQvJ74mTMDHzN-RfHY-7" vertex="1">
          <mxGeometry x="45" y="80" width="10" height="70" as="geometry" />
        </mxCell>
        <mxCell id="c8wQvJ74mTMDHzN-RfHY-9" value="Employee&lt;br&gt;Repository" style="shape=umlLifeline;perimeter=lifelinePerimeter;whiteSpace=wrap;html=1;container=0;dropTarget=0;collapsible=0;recursiveResize=0;outlineConnect=0;portConstraint=eastwest;newEdgeStyle={&quot;edgeStyle&quot;:&quot;elbowEdgeStyle&quot;,&quot;elbow&quot;:&quot;vertical&quot;,&quot;curved&quot;:0,&quot;rounded&quot;:0};" parent="1" vertex="1">
          <mxGeometry x="530" y="40" width="100" height="200" as="geometry" />
        </mxCell>
        <mxCell id="c8wQvJ74mTMDHzN-RfHY-10" value="" style="html=1;points=[];perimeter=orthogonalPerimeter;outlineConnect=0;targetShapes=umlLifeline;portConstraint=eastwest;newEdgeStyle={&quot;edgeStyle&quot;:&quot;elbowEdgeStyle&quot;,&quot;elbow&quot;:&quot;vertical&quot;,&quot;curved&quot;:0,&quot;rounded&quot;:0};" parent="c8wQvJ74mTMDHzN-RfHY-9" vertex="1">
          <mxGeometry x="45" y="80" width="10" height="60" as="geometry" />
        </mxCell>
        <mxCell id="c8wQvJ74mTMDHzN-RfHY-11" style="edgeStyle=elbowEdgeStyle;rounded=0;orthogonalLoop=1;jettySize=auto;html=1;elbow=vertical;curved=0;" parent="1" edge="1">
          <mxGeometry relative="1" as="geometry">
            <mxPoint x="280" y="140" as="sourcePoint" />
            <mxPoint x="420" y="140" as="targetPoint" />
          </mxGeometry>
        </mxCell>
        <mxCell id="c8wQvJ74mTMDHzN-RfHY-12" value="deleteEmployee(eid)" style="text;html=1;align=center;verticalAlign=middle;resizable=0;points=[];autosize=1;strokeColor=none;fillColor=none;" parent="1" vertex="1">
          <mxGeometry x="280" y="118" width="130" height="30" as="geometry" />
        </mxCell>
        <mxCell id="c8wQvJ74mTMDHzN-RfHY-13" style="edgeStyle=elbowEdgeStyle;rounded=0;orthogonalLoop=1;jettySize=auto;html=1;elbow=vertical;curved=0;" parent="1" edge="1">
          <mxGeometry relative="1" as="geometry">
            <mxPoint x="425" y="148" as="sourcePoint" />
            <mxPoint x="574.5" y="148" as="targetPoint" />
          </mxGeometry>
        </mxCell>
        <mxCell id="c8wQvJ74mTMDHzN-RfHY-14" value="deleteById(eid)" style="text;html=1;align=center;verticalAlign=middle;resizable=0;points=[];autosize=1;strokeColor=none;fillColor=none;" parent="1" vertex="1">
          <mxGeometry x="450" y="128" width="100" height="30" as="geometry" />
        </mxCell>
        <mxCell id="c8wQvJ74mTMDHzN-RfHY-15" value="return" style="html=1;verticalAlign=bottom;endArrow=open;dashed=1;endSize=8;edgeStyle=elbowEdgeStyle;elbow=vertical;curved=0;rounded=0;" parent="1" edge="1">
          <mxGeometry relative="1" as="geometry">
            <mxPoint x="425" y="170" as="targetPoint" />
            <Array as="points">
              <mxPoint x="510" y="170" />
            </Array>
            <mxPoint x="580" y="170" as="sourcePoint" />
          </mxGeometry>
        </mxCell>
        <mxCell id="c8wQvJ74mTMDHzN-RfHY-16" value="return" style="html=1;verticalAlign=bottom;endArrow=open;dashed=1;endSize=8;edgeStyle=elbowEdgeStyle;elbow=vertical;curved=0;rounded=0;" parent="1" edge="1">
          <mxGeometry relative="1" as="geometry">
            <mxPoint x="280" y="180" as="targetPoint" />
            <Array as="points">
              <mxPoint x="352.5" y="180" />
            </Array>
            <mxPoint x="422.5" y="180" as="sourcePoint" />
          </mxGeometry>
        </mxCell>
        <mxCell id="c8wQvJ74mTMDHzN-RfHY-17" value="return 200" style="html=1;verticalAlign=bottom;endArrow=open;dashed=1;endSize=8;edgeStyle=elbowEdgeStyle;elbow=horizontal;curved=0;rounded=0;" parent="1" edge="1">
          <mxGeometry relative="1" as="geometry">
            <mxPoint x="110" y="189.5" as="targetPoint" />
            <Array as="points">
              <mxPoint x="195" y="189.5" />
            </Array>
            <mxPoint x="265" y="189.5" as="sourcePoint" />
          </mxGeometry>
        </mxCell>
        <mxCell id="c8wQvJ74mTMDHzN-RfHY-18" value="" style="group" parent="1" vertex="1" connectable="0">
          <mxGeometry x="710" y="110" width="120" height="110" as="geometry" />
        </mxCell>
        <mxCell id="c8wQvJ74mTMDHzN-RfHY-19" value="" style="rounded=0;whiteSpace=wrap;html=1;" parent="c8wQvJ74mTMDHzN-RfHY-18" vertex="1">
          <mxGeometry y="31.818181818181817" width="120" height="64.54545454545455" as="geometry" />
        </mxCell>
        <mxCell id="c8wQvJ74mTMDHzN-RfHY-20" value="" style="group" parent="c8wQvJ74mTMDHzN-RfHY-18" vertex="1" connectable="0">
          <mxGeometry y="50.90909090909091" width="120" height="59.090909090909086" as="geometry" />
        </mxCell>
        <mxCell id="c8wQvJ74mTMDHzN-RfHY-21" value="" style="ellipse;whiteSpace=wrap;html=1;" parent="c8wQvJ74mTMDHzN-RfHY-20" vertex="1">
          <mxGeometry y="22.727272727272727" width="120" height="36.36363636363636" as="geometry" />
        </mxCell>
        <mxCell id="c8wQvJ74mTMDHzN-RfHY-22" value="" style="ellipse;whiteSpace=wrap;html=1;" parent="c8wQvJ74mTMDHzN-RfHY-20" vertex="1">
          <mxGeometry width="120" height="36.36363636363636" as="geometry" />
        </mxCell>
        <mxCell id="c8wQvJ74mTMDHzN-RfHY-23" value="" style="rounded=0;whiteSpace=wrap;html=1;" parent="c8wQvJ74mTMDHzN-RfHY-18" vertex="1">
          <mxGeometry y="18.18181818181818" width="120" height="27.272727272727273" as="geometry" />
        </mxCell>
        <mxCell id="c8wQvJ74mTMDHzN-RfHY-24" style="edgeStyle=orthogonalEdgeStyle;rounded=0;orthogonalLoop=1;jettySize=auto;html=1;exitX=0.5;exitY=1;exitDx=0;exitDy=0;" parent="c8wQvJ74mTMDHzN-RfHY-18" source="c8wQvJ74mTMDHzN-RfHY-25" target="c8wQvJ74mTMDHzN-RfHY-22" edge="1">
          <mxGeometry relative="1" as="geometry" />
        </mxCell>
        <mxCell id="c8wQvJ74mTMDHzN-RfHY-25" value="" style="ellipse;whiteSpace=wrap;html=1;" parent="c8wQvJ74mTMDHzN-RfHY-18" vertex="1">
          <mxGeometry y="31.818181818181817" width="120" height="36.36363636363636" as="geometry" />
        </mxCell>
        <mxCell id="c8wQvJ74mTMDHzN-RfHY-26" value="" style="ellipse;whiteSpace=wrap;html=1;" parent="c8wQvJ74mTMDHzN-RfHY-18" vertex="1">
          <mxGeometry width="120" height="36.36363636363636" as="geometry" />
        </mxCell>
        <mxCell id="c8wQvJ74mTMDHzN-RfHY-27" value="DB" style="text;html=1;align=center;verticalAlign=middle;resizable=0;points=[];autosize=1;strokeColor=none;fillColor=none;" parent="1" vertex="1">
          <mxGeometry x="750" y="40" width="40" height="30" as="geometry" />
        </mxCell>
        <mxCell id="c8wQvJ74mTMDHzN-RfHY-28" value="" style="endArrow=classic;startArrow=classic;html=1;rounded=0;" parent="1" edge="1">
          <mxGeometry width="50" height="50" relative="1" as="geometry">
            <mxPoint x="590" y="155" as="sourcePoint" />
            <mxPoint x="710" y="155" as="targetPoint" />
          </mxGeometry>
        </mxCell>
      </root>
    </mxGraphModel>
  </diagram>
  <diagram id="pqocZMI0K09ccVYQZ5Vg" name="getEmployee">
    <mxGraphModel dx="1239" dy="470" grid="1" gridSize="10" guides="1" tooltips="1" connect="1" arrows="1" fold="1" page="1" pageScale="1" pageWidth="500" pageHeight="500" math="0" shadow="0">
      <root>
        <mxCell id="0" />
        <mxCell id="1" parent="0" />
        <mxCell id="UJyPSHQa-_RepvIGWFUO-1" value="API Gateway" style="shape=umlLifeline;perimeter=lifelinePerimeter;whiteSpace=wrap;html=1;container=0;dropTarget=0;collapsible=0;recursiveResize=0;outlineConnect=0;portConstraint=eastwest;newEdgeStyle={&quot;edgeStyle&quot;:&quot;elbowEdgeStyle&quot;,&quot;elbow&quot;:&quot;vertical&quot;,&quot;curved&quot;:0,&quot;rounded&quot;:0};" parent="1" vertex="1">
          <mxGeometry x="50" y="40" width="100" height="230" as="geometry" />
        </mxCell>
        <mxCell id="UJyPSHQa-_RepvIGWFUO-2" value="" style="html=1;points=[];perimeter=orthogonalPerimeter;outlineConnect=0;targetShapes=umlLifeline;portConstraint=eastwest;newEdgeStyle={&quot;edgeStyle&quot;:&quot;elbowEdgeStyle&quot;,&quot;elbow&quot;:&quot;vertical&quot;,&quot;curved&quot;:0,&quot;rounded&quot;:0};" parent="UJyPSHQa-_RepvIGWFUO-1" vertex="1">
          <mxGeometry x="45" y="70" width="10" height="150" as="geometry" />
        </mxCell>
        <mxCell id="UJyPSHQa-_RepvIGWFUO-3" value="/employee/eid" style="html=1;verticalAlign=bottom;startArrow=oval;endArrow=block;startSize=8;edgeStyle=elbowEdgeStyle;elbow=vertical;curved=0;rounded=0;" parent="UJyPSHQa-_RepvIGWFUO-1" target="UJyPSHQa-_RepvIGWFUO-2" edge="1">
          <mxGeometry relative="1" as="geometry">
            <mxPoint x="-60" y="90" as="sourcePoint" />
          </mxGeometry>
        </mxCell>
        <mxCell id="UJyPSHQa-_RepvIGWFUO-4" value="Employee&lt;br&gt;Controller" style="shape=umlLifeline;perimeter=lifelinePerimeter;whiteSpace=wrap;html=1;container=0;dropTarget=0;collapsible=0;recursiveResize=0;outlineConnect=0;portConstraint=eastwest;newEdgeStyle={&quot;edgeStyle&quot;:&quot;elbowEdgeStyle&quot;,&quot;elbow&quot;:&quot;vertical&quot;,&quot;curved&quot;:0,&quot;rounded&quot;:0};" parent="1" vertex="1">
          <mxGeometry x="220" y="40" width="100" height="230" as="geometry" />
        </mxCell>
        <mxCell id="UJyPSHQa-_RepvIGWFUO-5" value="" style="html=1;points=[];perimeter=orthogonalPerimeter;outlineConnect=0;targetShapes=umlLifeline;portConstraint=eastwest;newEdgeStyle={&quot;edgeStyle&quot;:&quot;elbowEdgeStyle&quot;,&quot;elbow&quot;:&quot;vertical&quot;,&quot;curved&quot;:0,&quot;rounded&quot;:0};" parent="UJyPSHQa-_RepvIGWFUO-4" vertex="1">
          <mxGeometry x="45" y="80" width="10" height="140" as="geometry" />
        </mxCell>
        <mxCell id="UJyPSHQa-_RepvIGWFUO-6" value="/employee/eid" style="html=1;verticalAlign=bottom;endArrow=block;edgeStyle=elbowEdgeStyle;elbow=horizontal;curved=0;rounded=0;" parent="1" source="UJyPSHQa-_RepvIGWFUO-2" target="UJyPSHQa-_RepvIGWFUO-5" edge="1">
          <mxGeometry relative="1" as="geometry">
            <mxPoint x="195" y="130" as="sourcePoint" />
            <Array as="points">
              <mxPoint x="210" y="130" />
              <mxPoint x="180" y="120" />
            </Array>
          </mxGeometry>
        </mxCell>
        <mxCell id="UJyPSHQa-_RepvIGWFUO-7" value="Employee Service" style="shape=umlLifeline;perimeter=lifelinePerimeter;whiteSpace=wrap;html=1;container=0;dropTarget=0;collapsible=0;recursiveResize=0;outlineConnect=0;portConstraint=eastwest;newEdgeStyle={&quot;edgeStyle&quot;:&quot;elbowEdgeStyle&quot;,&quot;elbow&quot;:&quot;vertical&quot;,&quot;curved&quot;:0,&quot;rounded&quot;:0};" parent="1" vertex="1">
          <mxGeometry x="375" y="40" width="100" height="230" as="geometry" />
        </mxCell>
        <mxCell id="UJyPSHQa-_RepvIGWFUO-8" value="" style="html=1;points=[];perimeter=orthogonalPerimeter;outlineConnect=0;targetShapes=umlLifeline;portConstraint=eastwest;newEdgeStyle={&quot;edgeStyle&quot;:&quot;elbowEdgeStyle&quot;,&quot;elbow&quot;:&quot;vertical&quot;,&quot;curved&quot;:0,&quot;rounded&quot;:0};" parent="UJyPSHQa-_RepvIGWFUO-7" vertex="1">
          <mxGeometry x="45" y="80" width="10" height="140" as="geometry" />
        </mxCell>
        <mxCell id="UJyPSHQa-_RepvIGWFUO-9" value="Employee Repository" style="shape=umlLifeline;perimeter=lifelinePerimeter;whiteSpace=wrap;html=1;container=0;dropTarget=0;collapsible=0;recursiveResize=0;outlineConnect=0;portConstraint=eastwest;newEdgeStyle={&quot;edgeStyle&quot;:&quot;elbowEdgeStyle&quot;,&quot;elbow&quot;:&quot;vertical&quot;,&quot;curved&quot;:0,&quot;rounded&quot;:0};" parent="1" vertex="1">
          <mxGeometry x="530" y="40" width="100" height="230" as="geometry" />
        </mxCell>
        <mxCell id="UJyPSHQa-_RepvIGWFUO-10" value="" style="html=1;points=[];perimeter=orthogonalPerimeter;outlineConnect=0;targetShapes=umlLifeline;portConstraint=eastwest;newEdgeStyle={&quot;edgeStyle&quot;:&quot;elbowEdgeStyle&quot;,&quot;elbow&quot;:&quot;vertical&quot;,&quot;curved&quot;:0,&quot;rounded&quot;:0};" parent="UJyPSHQa-_RepvIGWFUO-9" vertex="1">
          <mxGeometry x="45" y="80" width="10" height="130" as="geometry" />
        </mxCell>
        <mxCell id="UJyPSHQa-_RepvIGWFUO-13" style="edgeStyle=elbowEdgeStyle;rounded=0;orthogonalLoop=1;jettySize=auto;html=1;elbow=vertical;curved=0;" parent="1" edge="1">
          <mxGeometry relative="1" as="geometry">
            <mxPoint x="425" y="148" as="sourcePoint" />
            <mxPoint x="574.5" y="148" as="targetPoint" />
          </mxGeometry>
        </mxCell>
        <mxCell id="UJyPSHQa-_RepvIGWFUO-14" value="findById(eid)" style="text;html=1;align=center;verticalAlign=middle;resizable=0;points=[];autosize=1;strokeColor=none;fillColor=none;" parent="1" vertex="1">
          <mxGeometry x="455" y="128" width="90" height="30" as="geometry" />
        </mxCell>
        <mxCell id="UJyPSHQa-_RepvIGWFUO-16" value="return(Employee)" style="html=1;verticalAlign=bottom;endArrow=open;dashed=1;endSize=8;edgeStyle=elbowEdgeStyle;elbow=vertical;curved=0;rounded=0;" parent="1" edge="1">
          <mxGeometry relative="1" as="geometry">
            <mxPoint x="273.75" y="230" as="targetPoint" />
            <Array as="points">
              <mxPoint x="346.25" y="230" />
            </Array>
            <mxPoint x="416.25" y="230" as="sourcePoint" />
          </mxGeometry>
        </mxCell>
        <mxCell id="UJyPSHQa-_RepvIGWFUO-17" value="return 200(lEmployee)" style="html=1;verticalAlign=bottom;endArrow=open;dashed=1;endSize=8;edgeStyle=elbowEdgeStyle;elbow=vertical;curved=0;rounded=0;" parent="1" edge="1">
          <mxGeometry x="0.0065" relative="1" as="geometry">
            <mxPoint x="110" y="250" as="targetPoint" />
            <Array as="points">
              <mxPoint x="195" y="250" />
            </Array>
            <mxPoint x="265" y="250" as="sourcePoint" />
            <mxPoint as="offset" />
          </mxGeometry>
        </mxCell>
        <mxCell id="UJyPSHQa-_RepvIGWFUO-18" value="" style="group" parent="1" vertex="1" connectable="0">
          <mxGeometry x="710" y="110" width="120" height="160" as="geometry" />
        </mxCell>
        <mxCell id="UJyPSHQa-_RepvIGWFUO-19" value="" style="rounded=0;whiteSpace=wrap;html=1;" parent="UJyPSHQa-_RepvIGWFUO-18" vertex="1">
          <mxGeometry y="46.28099173553719" width="120" height="93.88429752066118" as="geometry" />
        </mxCell>
        <mxCell id="UJyPSHQa-_RepvIGWFUO-20" value="" style="group" parent="UJyPSHQa-_RepvIGWFUO-18" vertex="1" connectable="0">
          <mxGeometry y="74.04958677685951" width="120" height="85.9504132231405" as="geometry" />
        </mxCell>
        <mxCell id="UJyPSHQa-_RepvIGWFUO-21" value="" style="ellipse;whiteSpace=wrap;html=1;" parent="UJyPSHQa-_RepvIGWFUO-20" vertex="1">
          <mxGeometry y="33.057851239669425" width="120" height="52.89256198347107" as="geometry" />
        </mxCell>
        <mxCell id="UJyPSHQa-_RepvIGWFUO-22" value="" style="ellipse;whiteSpace=wrap;html=1;" parent="UJyPSHQa-_RepvIGWFUO-20" vertex="1">
          <mxGeometry width="120" height="52.89256198347107" as="geometry" />
        </mxCell>
        <mxCell id="UJyPSHQa-_RepvIGWFUO-23" value="" style="rounded=0;whiteSpace=wrap;html=1;" parent="UJyPSHQa-_RepvIGWFUO-18" vertex="1">
          <mxGeometry y="26.446280991735534" width="120" height="39.66942148760331" as="geometry" />
        </mxCell>
        <mxCell id="UJyPSHQa-_RepvIGWFUO-24" style="edgeStyle=orthogonalEdgeStyle;rounded=0;orthogonalLoop=1;jettySize=auto;html=1;exitX=0.5;exitY=1;exitDx=0;exitDy=0;" parent="UJyPSHQa-_RepvIGWFUO-18" source="UJyPSHQa-_RepvIGWFUO-25" target="UJyPSHQa-_RepvIGWFUO-22" edge="1">
          <mxGeometry relative="1" as="geometry" />
        </mxCell>
        <mxCell id="UJyPSHQa-_RepvIGWFUO-25" value="" style="ellipse;whiteSpace=wrap;html=1;" parent="UJyPSHQa-_RepvIGWFUO-18" vertex="1">
          <mxGeometry y="46.28099173553719" width="120" height="52.89256198347107" as="geometry" />
        </mxCell>
        <mxCell id="UJyPSHQa-_RepvIGWFUO-26" value="" style="ellipse;whiteSpace=wrap;html=1;" parent="UJyPSHQa-_RepvIGWFUO-18" vertex="1">
          <mxGeometry width="120" height="52.89256198347107" as="geometry" />
        </mxCell>
        <mxCell id="UJyPSHQa-_RepvIGWFUO-27" value="DB" style="text;html=1;align=center;verticalAlign=middle;resizable=0;points=[];autosize=1;strokeColor=none;fillColor=none;" parent="1" vertex="1">
          <mxGeometry x="750" y="40" width="40" height="30" as="geometry" />
        </mxCell>
        <mxCell id="UJyPSHQa-_RepvIGWFUO-28" value="" style="endArrow=classic;startArrow=classic;html=1;rounded=0;" parent="1" edge="1">
          <mxGeometry width="50" height="50" relative="1" as="geometry">
            <mxPoint x="590" y="155" as="sourcePoint" />
            <mxPoint x="710" y="155" as="targetPoint" />
          </mxGeometry>
        </mxCell>
        <mxCell id="UJyPSHQa-_RepvIGWFUO-39" value="(Employee)" style="text;html=1;align=center;verticalAlign=middle;resizable=0;points=[];autosize=1;strokeColor=none;fillColor=none;" parent="1" vertex="1">
          <mxGeometry x="460" y="200" width="80" height="30" as="geometry" />
        </mxCell>
        <mxCell id="UJyPSHQa-_RepvIGWFUO-12" value="getEmployeeById(eid)" style="text;html=1;align=center;verticalAlign=middle;resizable=0;points=[];autosize=1;strokeColor=none;fillColor=none;" parent="1" vertex="1">
          <mxGeometry x="280" y="100" width="140" height="30" as="geometry" />
        </mxCell>
        <mxCell id="g3OQwmFF0RibCym4sNnm-2" style="edgeStyle=elbowEdgeStyle;rounded=0;orthogonalLoop=1;jettySize=auto;html=1;elbow=vertical;curved=0;" edge="1" parent="1">
          <mxGeometry relative="1" as="geometry">
            <mxPoint x="275.25" y="142.5" as="sourcePoint" />
            <mxPoint x="424.75" y="142.5" as="targetPoint" />
          </mxGeometry>
        </mxCell>
        <mxCell id="g3OQwmFF0RibCym4sNnm-4" style="edgeStyle=elbowEdgeStyle;rounded=0;orthogonalLoop=1;jettySize=auto;html=1;elbow=vertical;curved=0;" edge="1" parent="1">
          <mxGeometry relative="1" as="geometry">
            <mxPoint x="575.25" y="220" as="sourcePoint" />
            <mxPoint x="424.75" y="220" as="targetPoint" />
          </mxGeometry>
        </mxCell>
      </root>
    </mxGraphModel>
  </diagram>
  <diagram name="getAllEmployee" id="hZCOwCX-Fl_Rm-tSajA8">
    <mxGraphModel dx="1239" dy="470" grid="1" gridSize="10" guides="1" tooltips="1" connect="1" arrows="1" fold="1" page="1" pageScale="1" pageWidth="500" pageHeight="500" math="0" shadow="0">
      <root>
        <mxCell id="bm2swL_rrO3iOlm8PyPR-0" />
        <mxCell id="bm2swL_rrO3iOlm8PyPR-1" parent="bm2swL_rrO3iOlm8PyPR-0" />
        <mxCell id="bm2swL_rrO3iOlm8PyPR-2" value="API Gateway" style="shape=umlLifeline;perimeter=lifelinePerimeter;whiteSpace=wrap;html=1;container=0;dropTarget=0;collapsible=0;recursiveResize=0;outlineConnect=0;portConstraint=eastwest;newEdgeStyle={&quot;edgeStyle&quot;:&quot;elbowEdgeStyle&quot;,&quot;elbow&quot;:&quot;vertical&quot;,&quot;curved&quot;:0,&quot;rounded&quot;:0};" vertex="1" parent="bm2swL_rrO3iOlm8PyPR-1">
          <mxGeometry x="50" y="40" width="100" height="230" as="geometry" />
        </mxCell>
        <mxCell id="bm2swL_rrO3iOlm8PyPR-3" value="" style="html=1;points=[];perimeter=orthogonalPerimeter;outlineConnect=0;targetShapes=umlLifeline;portConstraint=eastwest;newEdgeStyle={&quot;edgeStyle&quot;:&quot;elbowEdgeStyle&quot;,&quot;elbow&quot;:&quot;vertical&quot;,&quot;curved&quot;:0,&quot;rounded&quot;:0};" vertex="1" parent="bm2swL_rrO3iOlm8PyPR-2">
          <mxGeometry x="45" y="70" width="10" height="150" as="geometry" />
        </mxCell>
        <mxCell id="bm2swL_rrO3iOlm8PyPR-4" value="/employee" style="html=1;verticalAlign=bottom;startArrow=oval;endArrow=block;startSize=8;edgeStyle=elbowEdgeStyle;elbow=vertical;curved=0;rounded=0;" edge="1" parent="bm2swL_rrO3iOlm8PyPR-2" target="bm2swL_rrO3iOlm8PyPR-3">
          <mxGeometry relative="1" as="geometry">
            <mxPoint x="-60" y="90" as="sourcePoint" />
          </mxGeometry>
        </mxCell>
        <mxCell id="bm2swL_rrO3iOlm8PyPR-5" value="Employee&lt;br&gt;Controller" style="shape=umlLifeline;perimeter=lifelinePerimeter;whiteSpace=wrap;html=1;container=0;dropTarget=0;collapsible=0;recursiveResize=0;outlineConnect=0;portConstraint=eastwest;newEdgeStyle={&quot;edgeStyle&quot;:&quot;elbowEdgeStyle&quot;,&quot;elbow&quot;:&quot;vertical&quot;,&quot;curved&quot;:0,&quot;rounded&quot;:0};" vertex="1" parent="bm2swL_rrO3iOlm8PyPR-1">
          <mxGeometry x="220" y="40" width="100" height="230" as="geometry" />
        </mxCell>
        <mxCell id="bm2swL_rrO3iOlm8PyPR-6" value="" style="html=1;points=[];perimeter=orthogonalPerimeter;outlineConnect=0;targetShapes=umlLifeline;portConstraint=eastwest;newEdgeStyle={&quot;edgeStyle&quot;:&quot;elbowEdgeStyle&quot;,&quot;elbow&quot;:&quot;vertical&quot;,&quot;curved&quot;:0,&quot;rounded&quot;:0};" vertex="1" parent="bm2swL_rrO3iOlm8PyPR-5">
          <mxGeometry x="45" y="80" width="10" height="140" as="geometry" />
        </mxCell>
        <mxCell id="bm2swL_rrO3iOlm8PyPR-7" value="/employee" style="html=1;verticalAlign=bottom;endArrow=block;edgeStyle=elbowEdgeStyle;elbow=horizontal;curved=0;rounded=0;" edge="1" parent="bm2swL_rrO3iOlm8PyPR-1" source="bm2swL_rrO3iOlm8PyPR-3" target="bm2swL_rrO3iOlm8PyPR-6">
          <mxGeometry relative="1" as="geometry">
            <mxPoint x="195" y="130" as="sourcePoint" />
            <Array as="points">
              <mxPoint x="210" y="130" />
              <mxPoint x="180" y="120" />
            </Array>
          </mxGeometry>
        </mxCell>
        <mxCell id="bm2swL_rrO3iOlm8PyPR-8" value="Employee Service" style="shape=umlLifeline;perimeter=lifelinePerimeter;whiteSpace=wrap;html=1;container=0;dropTarget=0;collapsible=0;recursiveResize=0;outlineConnect=0;portConstraint=eastwest;newEdgeStyle={&quot;edgeStyle&quot;:&quot;elbowEdgeStyle&quot;,&quot;elbow&quot;:&quot;vertical&quot;,&quot;curved&quot;:0,&quot;rounded&quot;:0};" vertex="1" parent="bm2swL_rrO3iOlm8PyPR-1">
          <mxGeometry x="375" y="40" width="100" height="230" as="geometry" />
        </mxCell>
        <mxCell id="bm2swL_rrO3iOlm8PyPR-9" value="" style="html=1;points=[];perimeter=orthogonalPerimeter;outlineConnect=0;targetShapes=umlLifeline;portConstraint=eastwest;newEdgeStyle={&quot;edgeStyle&quot;:&quot;elbowEdgeStyle&quot;,&quot;elbow&quot;:&quot;vertical&quot;,&quot;curved&quot;:0,&quot;rounded&quot;:0};" vertex="1" parent="bm2swL_rrO3iOlm8PyPR-8">
          <mxGeometry x="45" y="80" width="10" height="140" as="geometry" />
        </mxCell>
        <mxCell id="bm2swL_rrO3iOlm8PyPR-10" value="Employee Repository" style="shape=umlLifeline;perimeter=lifelinePerimeter;whiteSpace=wrap;html=1;container=0;dropTarget=0;collapsible=0;recursiveResize=0;outlineConnect=0;portConstraint=eastwest;newEdgeStyle={&quot;edgeStyle&quot;:&quot;elbowEdgeStyle&quot;,&quot;elbow&quot;:&quot;vertical&quot;,&quot;curved&quot;:0,&quot;rounded&quot;:0};" vertex="1" parent="bm2swL_rrO3iOlm8PyPR-1">
          <mxGeometry x="530" y="40" width="100" height="230" as="geometry" />
        </mxCell>
        <mxCell id="bm2swL_rrO3iOlm8PyPR-11" value="" style="html=1;points=[];perimeter=orthogonalPerimeter;outlineConnect=0;targetShapes=umlLifeline;portConstraint=eastwest;newEdgeStyle={&quot;edgeStyle&quot;:&quot;elbowEdgeStyle&quot;,&quot;elbow&quot;:&quot;vertical&quot;,&quot;curved&quot;:0,&quot;rounded&quot;:0};" vertex="1" parent="bm2swL_rrO3iOlm8PyPR-10">
          <mxGeometry x="45" y="80" width="10" height="130" as="geometry" />
        </mxCell>
        <mxCell id="bm2swL_rrO3iOlm8PyPR-12" style="edgeStyle=elbowEdgeStyle;rounded=0;orthogonalLoop=1;jettySize=auto;html=1;elbow=vertical;curved=0;" edge="1" parent="bm2swL_rrO3iOlm8PyPR-1">
          <mxGeometry relative="1" as="geometry">
            <mxPoint x="425" y="148" as="sourcePoint" />
            <mxPoint x="574.5" y="148" as="targetPoint" />
          </mxGeometry>
        </mxCell>
        <mxCell id="bm2swL_rrO3iOlm8PyPR-13" value="findAll()" style="text;html=1;align=center;verticalAlign=middle;resizable=0;points=[];autosize=1;strokeColor=none;fillColor=none;" vertex="1" parent="bm2swL_rrO3iOlm8PyPR-1">
          <mxGeometry x="470" y="128" width="60" height="30" as="geometry" />
        </mxCell>
        <mxCell id="bm2swL_rrO3iOlm8PyPR-14" value="return(list&amp;lt;Employee&amp;gt;)" style="html=1;verticalAlign=bottom;endArrow=open;dashed=1;endSize=8;edgeStyle=elbowEdgeStyle;elbow=vertical;curved=0;rounded=0;" edge="1" parent="bm2swL_rrO3iOlm8PyPR-1">
          <mxGeometry relative="1" as="geometry">
            <mxPoint x="273.75" y="230" as="targetPoint" />
            <Array as="points">
              <mxPoint x="346.25" y="230" />
            </Array>
            <mxPoint x="416.25" y="230" as="sourcePoint" />
          </mxGeometry>
        </mxCell>
        <mxCell id="bm2swL_rrO3iOlm8PyPR-15" value="return 200(list&amp;lt;Employee&amp;gt;)" style="html=1;verticalAlign=bottom;endArrow=open;dashed=1;endSize=8;edgeStyle=elbowEdgeStyle;elbow=vertical;curved=0;rounded=0;" edge="1" parent="bm2swL_rrO3iOlm8PyPR-1">
          <mxGeometry x="0.0065" relative="1" as="geometry">
            <mxPoint x="110" y="250" as="targetPoint" />
            <Array as="points">
              <mxPoint x="195" y="250" />
            </Array>
            <mxPoint x="265" y="250" as="sourcePoint" />
            <mxPoint as="offset" />
          </mxGeometry>
        </mxCell>
        <mxCell id="bm2swL_rrO3iOlm8PyPR-16" value="" style="group" vertex="1" connectable="0" parent="bm2swL_rrO3iOlm8PyPR-1">
          <mxGeometry x="710" y="110" width="120" height="160" as="geometry" />
        </mxCell>
        <mxCell id="bm2swL_rrO3iOlm8PyPR-17" value="" style="rounded=0;whiteSpace=wrap;html=1;" vertex="1" parent="bm2swL_rrO3iOlm8PyPR-16">
          <mxGeometry y="46.28099173553719" width="120" height="93.88429752066118" as="geometry" />
        </mxCell>
        <mxCell id="bm2swL_rrO3iOlm8PyPR-18" value="" style="group" vertex="1" connectable="0" parent="bm2swL_rrO3iOlm8PyPR-16">
          <mxGeometry y="74.04958677685951" width="120" height="85.9504132231405" as="geometry" />
        </mxCell>
        <mxCell id="bm2swL_rrO3iOlm8PyPR-19" value="" style="ellipse;whiteSpace=wrap;html=1;" vertex="1" parent="bm2swL_rrO3iOlm8PyPR-18">
          <mxGeometry y="33.057851239669425" width="120" height="52.89256198347107" as="geometry" />
        </mxCell>
        <mxCell id="bm2swL_rrO3iOlm8PyPR-20" value="" style="ellipse;whiteSpace=wrap;html=1;" vertex="1" parent="bm2swL_rrO3iOlm8PyPR-18">
          <mxGeometry width="120" height="52.89256198347107" as="geometry" />
        </mxCell>
        <mxCell id="bm2swL_rrO3iOlm8PyPR-21" value="" style="rounded=0;whiteSpace=wrap;html=1;" vertex="1" parent="bm2swL_rrO3iOlm8PyPR-16">
          <mxGeometry y="26.446280991735534" width="120" height="39.66942148760331" as="geometry" />
        </mxCell>
        <mxCell id="bm2swL_rrO3iOlm8PyPR-22" style="edgeStyle=orthogonalEdgeStyle;rounded=0;orthogonalLoop=1;jettySize=auto;html=1;exitX=0.5;exitY=1;exitDx=0;exitDy=0;" edge="1" parent="bm2swL_rrO3iOlm8PyPR-16" source="bm2swL_rrO3iOlm8PyPR-23" target="bm2swL_rrO3iOlm8PyPR-20">
          <mxGeometry relative="1" as="geometry" />
        </mxCell>
        <mxCell id="bm2swL_rrO3iOlm8PyPR-23" value="" style="ellipse;whiteSpace=wrap;html=1;" vertex="1" parent="bm2swL_rrO3iOlm8PyPR-16">
          <mxGeometry y="46.28099173553719" width="120" height="52.89256198347107" as="geometry" />
        </mxCell>
        <mxCell id="bm2swL_rrO3iOlm8PyPR-24" value="" style="ellipse;whiteSpace=wrap;html=1;" vertex="1" parent="bm2swL_rrO3iOlm8PyPR-16">
          <mxGeometry width="120" height="52.89256198347107" as="geometry" />
        </mxCell>
        <mxCell id="bm2swL_rrO3iOlm8PyPR-25" value="DB" style="text;html=1;align=center;verticalAlign=middle;resizable=0;points=[];autosize=1;strokeColor=none;fillColor=none;" vertex="1" parent="bm2swL_rrO3iOlm8PyPR-1">
          <mxGeometry x="750" y="40" width="40" height="30" as="geometry" />
        </mxCell>
        <mxCell id="bm2swL_rrO3iOlm8PyPR-26" value="" style="endArrow=classic;startArrow=classic;html=1;rounded=0;" edge="1" parent="bm2swL_rrO3iOlm8PyPR-1">
          <mxGeometry width="50" height="50" relative="1" as="geometry">
            <mxPoint x="590" y="155" as="sourcePoint" />
            <mxPoint x="710" y="155" as="targetPoint" />
          </mxGeometry>
        </mxCell>
        <mxCell id="bm2swL_rrO3iOlm8PyPR-27" value="(list&amp;lt;Employee&amp;gt;)" style="text;html=1;align=center;verticalAlign=middle;resizable=0;points=[];autosize=1;strokeColor=none;fillColor=none;" vertex="1" parent="bm2swL_rrO3iOlm8PyPR-1">
          <mxGeometry x="445" y="200" width="110" height="30" as="geometry" />
        </mxCell>
        <mxCell id="bm2swL_rrO3iOlm8PyPR-28" value="getEmployee()" style="text;html=1;align=center;verticalAlign=middle;resizable=0;points=[];autosize=1;strokeColor=none;fillColor=none;" vertex="1" parent="bm2swL_rrO3iOlm8PyPR-1">
          <mxGeometry x="300" y="100" width="100" height="30" as="geometry" />
        </mxCell>
        <mxCell id="bm2swL_rrO3iOlm8PyPR-29" style="edgeStyle=elbowEdgeStyle;rounded=0;orthogonalLoop=1;jettySize=auto;html=1;elbow=vertical;curved=0;" edge="1" parent="bm2swL_rrO3iOlm8PyPR-1">
          <mxGeometry relative="1" as="geometry">
            <mxPoint x="275.25" y="142.5" as="sourcePoint" />
            <mxPoint x="424.75" y="142.5" as="targetPoint" />
          </mxGeometry>
        </mxCell>
        <mxCell id="bm2swL_rrO3iOlm8PyPR-30" style="edgeStyle=elbowEdgeStyle;rounded=0;orthogonalLoop=1;jettySize=auto;html=1;elbow=vertical;curved=0;" edge="1" parent="bm2swL_rrO3iOlm8PyPR-1">
          <mxGeometry relative="1" as="geometry">
            <mxPoint x="575.25" y="220" as="sourcePoint" />
            <mxPoint x="424.75" y="220" as="targetPoint" />
          </mxGeometry>
        </mxCell>
      </root>
    </mxGraphModel>
  </diagram>
  <diagram name="getAttendance" id="XAyOLjI184DLdDhr8knO">
    <mxGraphModel dx="1239" dy="470" grid="1" gridSize="10" guides="1" tooltips="1" connect="1" arrows="1" fold="1" page="1" pageScale="1" pageWidth="500" pageHeight="500" math="0" shadow="0">
      <root>
        <mxCell id="KjLeCPPdCDCev68COTsn-0" />
        <mxCell id="KjLeCPPdCDCev68COTsn-1" parent="KjLeCPPdCDCev68COTsn-0" />
        <mxCell id="KjLeCPPdCDCev68COTsn-2" value="API Gateway" style="shape=umlLifeline;perimeter=lifelinePerimeter;whiteSpace=wrap;html=1;container=0;dropTarget=0;collapsible=0;recursiveResize=0;outlineConnect=0;portConstraint=eastwest;newEdgeStyle={&quot;edgeStyle&quot;:&quot;elbowEdgeStyle&quot;,&quot;elbow&quot;:&quot;vertical&quot;,&quot;curved&quot;:0,&quot;rounded&quot;:0};" vertex="1" parent="KjLeCPPdCDCev68COTsn-1">
          <mxGeometry x="50" y="40" width="100" height="230" as="geometry" />
        </mxCell>
        <mxCell id="KjLeCPPdCDCev68COTsn-3" value="" style="html=1;points=[];perimeter=orthogonalPerimeter;outlineConnect=0;targetShapes=umlLifeline;portConstraint=eastwest;newEdgeStyle={&quot;edgeStyle&quot;:&quot;elbowEdgeStyle&quot;,&quot;elbow&quot;:&quot;vertical&quot;,&quot;curved&quot;:0,&quot;rounded&quot;:0};" vertex="1" parent="KjLeCPPdCDCev68COTsn-2">
          <mxGeometry x="45" y="70" width="10" height="150" as="geometry" />
        </mxCell>
        <mxCell id="KjLeCPPdCDCev68COTsn-4" value="attendance/{date}&quot;" style="html=1;verticalAlign=bottom;startArrow=oval;endArrow=block;startSize=8;edgeStyle=elbowEdgeStyle;elbow=vertical;curved=0;rounded=0;" edge="1" parent="KjLeCPPdCDCev68COTsn-2" target="KjLeCPPdCDCev68COTsn-3">
          <mxGeometry relative="1" as="geometry">
            <mxPoint x="-60" y="90" as="sourcePoint" />
          </mxGeometry>
        </mxCell>
        <mxCell id="KjLeCPPdCDCev68COTsn-5" value="Attendance&lt;br&gt;Controller" style="shape=umlLifeline;perimeter=lifelinePerimeter;whiteSpace=wrap;html=1;container=0;dropTarget=0;collapsible=0;recursiveResize=0;outlineConnect=0;portConstraint=eastwest;newEdgeStyle={&quot;edgeStyle&quot;:&quot;elbowEdgeStyle&quot;,&quot;elbow&quot;:&quot;vertical&quot;,&quot;curved&quot;:0,&quot;rounded&quot;:0};" vertex="1" parent="KjLeCPPdCDCev68COTsn-1">
          <mxGeometry x="220" y="40" width="100" height="230" as="geometry" />
        </mxCell>
        <mxCell id="KjLeCPPdCDCev68COTsn-6" value="" style="html=1;points=[];perimeter=orthogonalPerimeter;outlineConnect=0;targetShapes=umlLifeline;portConstraint=eastwest;newEdgeStyle={&quot;edgeStyle&quot;:&quot;elbowEdgeStyle&quot;,&quot;elbow&quot;:&quot;vertical&quot;,&quot;curved&quot;:0,&quot;rounded&quot;:0};" vertex="1" parent="KjLeCPPdCDCev68COTsn-5">
          <mxGeometry x="45" y="80" width="10" height="140" as="geometry" />
        </mxCell>
        <mxCell id="KjLeCPPdCDCev68COTsn-7" value="attendance/{date}&quot;" style="html=1;verticalAlign=bottom;endArrow=block;edgeStyle=elbowEdgeStyle;elbow=horizontal;curved=0;rounded=0;" edge="1" parent="KjLeCPPdCDCev68COTsn-1" source="KjLeCPPdCDCev68COTsn-3" target="KjLeCPPdCDCev68COTsn-6">
          <mxGeometry relative="1" as="geometry">
            <mxPoint x="195" y="130" as="sourcePoint" />
            <Array as="points">
              <mxPoint x="210" y="130" />
              <mxPoint x="180" y="120" />
            </Array>
          </mxGeometry>
        </mxCell>
        <mxCell id="KjLeCPPdCDCev68COTsn-8" value="Attendance&lt;br&gt;Service" style="shape=umlLifeline;perimeter=lifelinePerimeter;whiteSpace=wrap;html=1;container=0;dropTarget=0;collapsible=0;recursiveResize=0;outlineConnect=0;portConstraint=eastwest;newEdgeStyle={&quot;edgeStyle&quot;:&quot;elbowEdgeStyle&quot;,&quot;elbow&quot;:&quot;vertical&quot;,&quot;curved&quot;:0,&quot;rounded&quot;:0};" vertex="1" parent="KjLeCPPdCDCev68COTsn-1">
          <mxGeometry x="375" y="40" width="100" height="230" as="geometry" />
        </mxCell>
        <mxCell id="KjLeCPPdCDCev68COTsn-9" value="" style="html=1;points=[];perimeter=orthogonalPerimeter;outlineConnect=0;targetShapes=umlLifeline;portConstraint=eastwest;newEdgeStyle={&quot;edgeStyle&quot;:&quot;elbowEdgeStyle&quot;,&quot;elbow&quot;:&quot;vertical&quot;,&quot;curved&quot;:0,&quot;rounded&quot;:0};" vertex="1" parent="KjLeCPPdCDCev68COTsn-8">
          <mxGeometry x="45" y="80" width="10" height="140" as="geometry" />
        </mxCell>
        <mxCell id="KjLeCPPdCDCev68COTsn-10" value="Attendance Repository" style="shape=umlLifeline;perimeter=lifelinePerimeter;whiteSpace=wrap;html=1;container=0;dropTarget=0;collapsible=0;recursiveResize=0;outlineConnect=0;portConstraint=eastwest;newEdgeStyle={&quot;edgeStyle&quot;:&quot;elbowEdgeStyle&quot;,&quot;elbow&quot;:&quot;vertical&quot;,&quot;curved&quot;:0,&quot;rounded&quot;:0};" vertex="1" parent="KjLeCPPdCDCev68COTsn-1">
          <mxGeometry x="530" y="40" width="100" height="230" as="geometry" />
        </mxCell>
        <mxCell id="KjLeCPPdCDCev68COTsn-11" value="" style="html=1;points=[];perimeter=orthogonalPerimeter;outlineConnect=0;targetShapes=umlLifeline;portConstraint=eastwest;newEdgeStyle={&quot;edgeStyle&quot;:&quot;elbowEdgeStyle&quot;,&quot;elbow&quot;:&quot;vertical&quot;,&quot;curved&quot;:0,&quot;rounded&quot;:0};" vertex="1" parent="KjLeCPPdCDCev68COTsn-10">
          <mxGeometry x="45" y="80" width="10" height="130" as="geometry" />
        </mxCell>
        <mxCell id="KjLeCPPdCDCev68COTsn-12" style="edgeStyle=elbowEdgeStyle;rounded=0;orthogonalLoop=1;jettySize=auto;html=1;elbow=vertical;curved=0;" edge="1" parent="KjLeCPPdCDCev68COTsn-1">
          <mxGeometry relative="1" as="geometry">
            <mxPoint x="425" y="148" as="sourcePoint" />
            <mxPoint x="574.5" y="148" as="targetPoint" />
          </mxGeometry>
        </mxCell>
        <mxCell id="KjLeCPPdCDCev68COTsn-13" value="findByIdAttendanceDate(date)" style="text;html=1;align=center;verticalAlign=middle;resizable=0;points=[];autosize=1;strokeColor=none;fillColor=none;" vertex="1" parent="KjLeCPPdCDCev68COTsn-1">
          <mxGeometry x="410" y="128" width="180" height="30" as="geometry" />
        </mxCell>
        <mxCell id="KjLeCPPdCDCev68COTsn-14" value="return(list&amp;lt;Attendance&amp;gt;)" style="html=1;verticalAlign=bottom;endArrow=open;dashed=1;endSize=8;edgeStyle=elbowEdgeStyle;elbow=vertical;curved=0;rounded=0;" edge="1" parent="KjLeCPPdCDCev68COTsn-1">
          <mxGeometry relative="1" as="geometry">
            <mxPoint x="273.75" y="230" as="targetPoint" />
            <Array as="points">
              <mxPoint x="346.25" y="230" />
            </Array>
            <mxPoint x="416.25" y="230" as="sourcePoint" />
          </mxGeometry>
        </mxCell>
        <mxCell id="KjLeCPPdCDCev68COTsn-15" value="return 200(list&amp;lt;Attendance&amp;gt;)" style="html=1;verticalAlign=bottom;endArrow=open;dashed=1;endSize=8;edgeStyle=elbowEdgeStyle;elbow=vertical;curved=0;rounded=0;" edge="1" parent="KjLeCPPdCDCev68COTsn-1">
          <mxGeometry x="0.0065" relative="1" as="geometry">
            <mxPoint x="110" y="250" as="targetPoint" />
            <Array as="points">
              <mxPoint x="195" y="250" />
            </Array>
            <mxPoint x="265" y="250" as="sourcePoint" />
            <mxPoint as="offset" />
          </mxGeometry>
        </mxCell>
        <mxCell id="KjLeCPPdCDCev68COTsn-16" value="" style="group" vertex="1" connectable="0" parent="KjLeCPPdCDCev68COTsn-1">
          <mxGeometry x="710" y="110" width="120" height="160" as="geometry" />
        </mxCell>
        <mxCell id="KjLeCPPdCDCev68COTsn-17" value="" style="rounded=0;whiteSpace=wrap;html=1;" vertex="1" parent="KjLeCPPdCDCev68COTsn-16">
          <mxGeometry y="46.28099173553719" width="120" height="93.88429752066118" as="geometry" />
        </mxCell>
        <mxCell id="KjLeCPPdCDCev68COTsn-18" value="" style="group" vertex="1" connectable="0" parent="KjLeCPPdCDCev68COTsn-16">
          <mxGeometry y="74.04958677685951" width="120" height="85.9504132231405" as="geometry" />
        </mxCell>
        <mxCell id="KjLeCPPdCDCev68COTsn-19" value="" style="ellipse;whiteSpace=wrap;html=1;" vertex="1" parent="KjLeCPPdCDCev68COTsn-18">
          <mxGeometry y="33.057851239669425" width="120" height="52.89256198347107" as="geometry" />
        </mxCell>
        <mxCell id="KjLeCPPdCDCev68COTsn-20" value="" style="ellipse;whiteSpace=wrap;html=1;" vertex="1" parent="KjLeCPPdCDCev68COTsn-18">
          <mxGeometry width="120" height="52.89256198347107" as="geometry" />
        </mxCell>
        <mxCell id="KjLeCPPdCDCev68COTsn-21" value="" style="rounded=0;whiteSpace=wrap;html=1;" vertex="1" parent="KjLeCPPdCDCev68COTsn-16">
          <mxGeometry y="26.446280991735534" width="120" height="39.66942148760331" as="geometry" />
        </mxCell>
        <mxCell id="KjLeCPPdCDCev68COTsn-22" style="edgeStyle=orthogonalEdgeStyle;rounded=0;orthogonalLoop=1;jettySize=auto;html=1;exitX=0.5;exitY=1;exitDx=0;exitDy=0;" edge="1" parent="KjLeCPPdCDCev68COTsn-16" source="KjLeCPPdCDCev68COTsn-23" target="KjLeCPPdCDCev68COTsn-20">
          <mxGeometry relative="1" as="geometry" />
        </mxCell>
        <mxCell id="KjLeCPPdCDCev68COTsn-23" value="" style="ellipse;whiteSpace=wrap;html=1;" vertex="1" parent="KjLeCPPdCDCev68COTsn-16">
          <mxGeometry y="46.28099173553719" width="120" height="52.89256198347107" as="geometry" />
        </mxCell>
        <mxCell id="KjLeCPPdCDCev68COTsn-24" value="" style="ellipse;whiteSpace=wrap;html=1;" vertex="1" parent="KjLeCPPdCDCev68COTsn-16">
          <mxGeometry width="120" height="52.89256198347107" as="geometry" />
        </mxCell>
        <mxCell id="KjLeCPPdCDCev68COTsn-25" value="DB" style="text;html=1;align=center;verticalAlign=middle;resizable=0;points=[];autosize=1;strokeColor=none;fillColor=none;" vertex="1" parent="KjLeCPPdCDCev68COTsn-1">
          <mxGeometry x="750" y="40" width="40" height="30" as="geometry" />
        </mxCell>
        <mxCell id="KjLeCPPdCDCev68COTsn-26" value="" style="endArrow=classic;startArrow=classic;html=1;rounded=0;" edge="1" parent="KjLeCPPdCDCev68COTsn-1">
          <mxGeometry width="50" height="50" relative="1" as="geometry">
            <mxPoint x="590" y="155" as="sourcePoint" />
            <mxPoint x="710" y="155" as="targetPoint" />
          </mxGeometry>
        </mxCell>
        <mxCell id="KjLeCPPdCDCev68COTsn-27" value="(list&amp;lt;Attendance&amp;gt;)" style="text;html=1;align=center;verticalAlign=middle;resizable=0;points=[];autosize=1;strokeColor=none;fillColor=none;" vertex="1" parent="KjLeCPPdCDCev68COTsn-1">
          <mxGeometry x="440" y="200" width="120" height="30" as="geometry" />
        </mxCell>
        <mxCell id="KjLeCPPdCDCev68COTsn-28" value="getAttendanceByDate&lt;br&gt;(date)" style="text;html=1;align=center;verticalAlign=middle;resizable=0;points=[];autosize=1;strokeColor=none;fillColor=none;" vertex="1" parent="KjLeCPPdCDCev68COTsn-1">
          <mxGeometry x="280" y="95" width="140" height="40" as="geometry" />
        </mxCell>
        <mxCell id="KjLeCPPdCDCev68COTsn-29" style="edgeStyle=elbowEdgeStyle;rounded=0;orthogonalLoop=1;jettySize=auto;html=1;elbow=vertical;curved=0;" edge="1" parent="KjLeCPPdCDCev68COTsn-1">
          <mxGeometry relative="1" as="geometry">
            <mxPoint x="275.25" y="142.5" as="sourcePoint" />
            <mxPoint x="424.75" y="142.5" as="targetPoint" />
          </mxGeometry>
        </mxCell>
        <mxCell id="KjLeCPPdCDCev68COTsn-30" style="edgeStyle=elbowEdgeStyle;rounded=0;orthogonalLoop=1;jettySize=auto;html=1;elbow=vertical;curved=0;" edge="1" parent="KjLeCPPdCDCev68COTsn-1">
          <mxGeometry relative="1" as="geometry">
            <mxPoint x="575.25" y="220" as="sourcePoint" />
            <mxPoint x="424.75" y="220" as="targetPoint" />
          </mxGeometry>
        </mxCell>
      </root>
    </mxGraphModel>
  </diagram>
  <diagram id="Iv2AlBZWJFPMLMEOvThw" name="consumeEvents">
    <mxGraphModel dx="922" dy="269" grid="1" gridSize="10" guides="1" tooltips="1" connect="1" arrows="1" fold="1" page="1" pageScale="1" pageWidth="500" pageHeight="500" math="0" shadow="0">
      <root>
        <mxCell id="0" />
        <mxCell id="1" parent="0" />
        <mxCell id="g135gdk5i4jA8f1i0pNu-37" value="API Gateway" style="shape=umlLifeline;perimeter=lifelinePerimeter;whiteSpace=wrap;html=1;container=0;dropTarget=0;collapsible=0;recursiveResize=0;outlineConnect=0;portConstraint=eastwest;newEdgeStyle={&quot;edgeStyle&quot;:&quot;elbowEdgeStyle&quot;,&quot;elbow&quot;:&quot;vertical&quot;,&quot;curved&quot;:0,&quot;rounded&quot;:0};" parent="1" vertex="1">
          <mxGeometry x="60" y="50" width="100" height="230" as="geometry" />
        </mxCell>
        <mxCell id="g135gdk5i4jA8f1i0pNu-38" value="" style="html=1;points=[];perimeter=orthogonalPerimeter;outlineConnect=0;targetShapes=umlLifeline;portConstraint=eastwest;newEdgeStyle={&quot;edgeStyle&quot;:&quot;elbowEdgeStyle&quot;,&quot;elbow&quot;:&quot;vertical&quot;,&quot;curved&quot;:0,&quot;rounded&quot;:0};" parent="g135gdk5i4jA8f1i0pNu-37" vertex="1">
          <mxGeometry x="45" y="70" width="10" height="150" as="geometry" />
        </mxCell>
        <mxCell id="g135gdk5i4jA8f1i0pNu-39" value="/consumeKafkaEvents" style="html=1;verticalAlign=bottom;startArrow=oval;endArrow=block;startSize=8;edgeStyle=elbowEdgeStyle;elbow=vertical;curved=0;rounded=0;" parent="g135gdk5i4jA8f1i0pNu-37" target="g135gdk5i4jA8f1i0pNu-38" edge="1">
          <mxGeometry relative="1" as="geometry">
            <mxPoint x="-60" y="90" as="sourcePoint" />
          </mxGeometry>
        </mxCell>
        <mxCell id="g135gdk5i4jA8f1i0pNu-40" value="Attendance&lt;br&gt;Controller" style="shape=umlLifeline;perimeter=lifelinePerimeter;whiteSpace=wrap;html=1;container=0;dropTarget=0;collapsible=0;recursiveResize=0;outlineConnect=0;portConstraint=eastwest;newEdgeStyle={&quot;edgeStyle&quot;:&quot;elbowEdgeStyle&quot;,&quot;elbow&quot;:&quot;vertical&quot;,&quot;curved&quot;:0,&quot;rounded&quot;:0};" parent="1" vertex="1">
          <mxGeometry x="230" y="50" width="100" height="230" as="geometry" />
        </mxCell>
        <mxCell id="g135gdk5i4jA8f1i0pNu-41" value="" style="html=1;points=[];perimeter=orthogonalPerimeter;outlineConnect=0;targetShapes=umlLifeline;portConstraint=eastwest;newEdgeStyle={&quot;edgeStyle&quot;:&quot;elbowEdgeStyle&quot;,&quot;elbow&quot;:&quot;vertical&quot;,&quot;curved&quot;:0,&quot;rounded&quot;:0};" parent="g135gdk5i4jA8f1i0pNu-40" vertex="1">
          <mxGeometry x="45" y="80" width="10" height="140" as="geometry" />
        </mxCell>
        <mxCell id="g135gdk5i4jA8f1i0pNu-42" value="/consumeKafkaEvents" style="html=1;verticalAlign=bottom;endArrow=block;edgeStyle=elbowEdgeStyle;elbow=vertical;curved=0;rounded=0;" parent="1" source="g135gdk5i4jA8f1i0pNu-38" target="g135gdk5i4jA8f1i0pNu-41" edge="1">
          <mxGeometry relative="1" as="geometry">
            <mxPoint x="205" y="140" as="sourcePoint" />
            <Array as="points">
              <mxPoint x="220" y="140" />
              <mxPoint x="190" y="130" />
            </Array>
          </mxGeometry>
        </mxCell>
        <mxCell id="g135gdk5i4jA8f1i0pNu-43" value="Attendance&lt;br&gt;Service" style="shape=umlLifeline;perimeter=lifelinePerimeter;whiteSpace=wrap;html=1;container=0;dropTarget=0;collapsible=0;recursiveResize=0;outlineConnect=0;portConstraint=eastwest;newEdgeStyle={&quot;edgeStyle&quot;:&quot;elbowEdgeStyle&quot;,&quot;elbow&quot;:&quot;vertical&quot;,&quot;curved&quot;:0,&quot;rounded&quot;:0};" parent="1" vertex="1">
          <mxGeometry x="385" y="50" width="100" height="230" as="geometry" />
        </mxCell>
        <mxCell id="g135gdk5i4jA8f1i0pNu-45" value="" style="html=1;points=[];perimeter=orthogonalPerimeter;outlineConnect=0;targetShapes=umlLifeline;portConstraint=eastwest;newEdgeStyle={&quot;edgeStyle&quot;:&quot;elbowEdgeStyle&quot;,&quot;elbow&quot;:&quot;vertical&quot;,&quot;curved&quot;:0,&quot;rounded&quot;:0};" parent="g135gdk5i4jA8f1i0pNu-43" vertex="1">
          <mxGeometry x="45" y="80" width="10" height="140" as="geometry" />
        </mxCell>
        <mxCell id="kg1gOOq2D4yfG9vJGdSN-19" style="edgeStyle=elbowEdgeStyle;rounded=0;orthogonalLoop=1;jettySize=auto;html=1;elbow=vertical;curved=0;exitX=1.037;exitY=0.526;exitDx=0;exitDy=0;exitPerimeter=0;" edge="1" parent="g135gdk5i4jA8f1i0pNu-43" source="g135gdk5i4jA8f1i0pNu-45" target="g135gdk5i4jA8f1i0pNu-45">
          <mxGeometry relative="1" as="geometry">
            <mxPoint x="105" y="150" as="targetPoint" />
            <Array as="points">
              <mxPoint x="105" y="170" />
            </Array>
          </mxGeometry>
        </mxCell>
        <mxCell id="g135gdk5i4jA8f1i0pNu-46" value="Attendance&lt;br&gt;Consumer" style="shape=umlLifeline;perimeter=lifelinePerimeter;whiteSpace=wrap;html=1;container=0;dropTarget=0;collapsible=0;recursiveResize=0;outlineConnect=0;portConstraint=eastwest;newEdgeStyle={&quot;edgeStyle&quot;:&quot;elbowEdgeStyle&quot;,&quot;elbow&quot;:&quot;vertical&quot;,&quot;curved&quot;:0,&quot;rounded&quot;:0};" parent="1" vertex="1">
          <mxGeometry x="540" y="50" width="100" height="230" as="geometry" />
        </mxCell>
        <mxCell id="g135gdk5i4jA8f1i0pNu-47" value="" style="html=1;points=[];perimeter=orthogonalPerimeter;outlineConnect=0;targetShapes=umlLifeline;portConstraint=eastwest;newEdgeStyle={&quot;edgeStyle&quot;:&quot;elbowEdgeStyle&quot;,&quot;elbow&quot;:&quot;vertical&quot;,&quot;curved&quot;:0,&quot;rounded&quot;:0};" parent="g135gdk5i4jA8f1i0pNu-46" vertex="1">
          <mxGeometry x="45" y="80" width="10" height="80" as="geometry" />
        </mxCell>
        <mxCell id="g135gdk5i4jA8f1i0pNu-48" style="edgeStyle=elbowEdgeStyle;rounded=0;orthogonalLoop=1;jettySize=auto;html=1;elbow=vertical;curved=0;" parent="1" edge="1">
          <mxGeometry relative="1" as="geometry">
            <mxPoint x="290" y="150" as="sourcePoint" />
            <mxPoint x="430" y="150" as="targetPoint" />
          </mxGeometry>
        </mxCell>
        <mxCell id="g135gdk5i4jA8f1i0pNu-49" value="consumeKafkaEvents()" style="text;html=1;align=center;verticalAlign=middle;resizable=0;points=[];autosize=1;strokeColor=none;fillColor=none;" parent="1" vertex="1">
          <mxGeometry x="280" y="120" width="150" height="30" as="geometry" />
        </mxCell>
        <mxCell id="g135gdk5i4jA8f1i0pNu-50" style="edgeStyle=elbowEdgeStyle;rounded=0;orthogonalLoop=1;jettySize=auto;html=1;elbow=vertical;curved=0;" parent="1" edge="1">
          <mxGeometry relative="1" as="geometry">
            <mxPoint x="435" y="158" as="sourcePoint" />
            <mxPoint x="584.5" y="158" as="targetPoint" />
          </mxGeometry>
        </mxCell>
        <mxCell id="g135gdk5i4jA8f1i0pNu-51" value="consumeEvent()" style="text;html=1;align=center;verticalAlign=middle;resizable=0;points=[];autosize=1;strokeColor=none;fillColor=none;" parent="1" vertex="1">
          <mxGeometry x="455" y="138" width="110" height="30" as="geometry" />
        </mxCell>
        <mxCell id="g135gdk5i4jA8f1i0pNu-52" value="return" style="html=1;verticalAlign=bottom;endArrow=open;dashed=1;endSize=8;edgeStyle=elbowEdgeStyle;elbow=vertical;curved=0;rounded=0;" parent="1" edge="1">
          <mxGeometry relative="1" as="geometry">
            <mxPoint x="283.75" y="259" as="targetPoint" />
            <Array as="points">
              <mxPoint x="356.25" y="259" />
            </Array>
            <mxPoint x="426.25" y="259" as="sourcePoint" />
          </mxGeometry>
        </mxCell>
        <mxCell id="g135gdk5i4jA8f1i0pNu-53" value="return 200" style="html=1;verticalAlign=bottom;endArrow=open;dashed=1;endSize=8;edgeStyle=elbowEdgeStyle;elbow=horizontal;curved=0;rounded=0;" parent="1" edge="1">
          <mxGeometry relative="1" as="geometry">
            <mxPoint x="120" y="260" as="targetPoint" />
            <Array as="points">
              <mxPoint x="205" y="260" />
            </Array>
            <mxPoint x="275" y="260" as="sourcePoint" />
          </mxGeometry>
        </mxCell>
        <mxCell id="g135gdk5i4jA8f1i0pNu-65" style="edgeStyle=elbowEdgeStyle;rounded=0;orthogonalLoop=1;jettySize=auto;html=1;elbow=horizontal;curved=0;" parent="1" edge="1">
          <mxGeometry relative="1" as="geometry">
            <mxPoint x="582.5" y="194.5" as="sourcePoint" />
            <mxPoint x="437.5" y="194.5" as="targetPoint" />
          </mxGeometry>
        </mxCell>
        <mxCell id="g135gdk5i4jA8f1i0pNu-66" value="list&amp;lt;events&amp;gt;" style="edgeLabel;html=1;align=center;verticalAlign=middle;resizable=0;points=[];" parent="g135gdk5i4jA8f1i0pNu-65" vertex="1" connectable="0">
          <mxGeometry x="0.2713" y="1" relative="1" as="geometry">
            <mxPoint x="20" y="-5" as="offset" />
          </mxGeometry>
        </mxCell>
        <mxCell id="g135gdk5i4jA8f1i0pNu-76" value="Kafka&lt;br&gt;Message Broker" style="text;html=1;align=center;verticalAlign=middle;resizable=0;points=[];autosize=1;strokeColor=none;fillColor=none;" parent="1" vertex="1">
          <mxGeometry x="695" y="50" width="110" height="40" as="geometry" />
        </mxCell>
        <mxCell id="kg1gOOq2D4yfG9vJGdSN-3" style="edgeStyle=orthogonalEdgeStyle;rounded=0;orthogonalLoop=1;jettySize=auto;html=1;" edge="1" parent="1" source="g135gdk5i4jA8f1i0pNu-77" target="g135gdk5i4jA8f1i0pNu-47">
          <mxGeometry relative="1" as="geometry">
            <Array as="points">
              <mxPoint x="690" y="190" />
              <mxPoint x="690" y="190" />
            </Array>
          </mxGeometry>
        </mxCell>
        <mxCell id="kg1gOOq2D4yfG9vJGdSN-5" value="" style="edgeStyle=orthogonalEdgeStyle;rounded=0;orthogonalLoop=1;jettySize=auto;html=1;" edge="1" parent="1" source="g135gdk5i4jA8f1i0pNu-77" target="g135gdk5i4jA8f1i0pNu-76">
          <mxGeometry relative="1" as="geometry" />
        </mxCell>
        <mxCell id="g135gdk5i4jA8f1i0pNu-77" value="Message&lt;br&gt;Broker" style="shape=cylinder3;whiteSpace=wrap;html=1;boundedLbl=1;backgroundOutline=1;size=15;" parent="1" vertex="1">
          <mxGeometry x="720" y="120" width="60" height="110" as="geometry" />
        </mxCell>
        <mxCell id="kg1gOOq2D4yfG9vJGdSN-2" style="edgeStyle=elbowEdgeStyle;rounded=0;orthogonalLoop=1;jettySize=auto;html=1;elbow=vertical;curved=0;entryX=0;entryY=0;entryDx=0;entryDy=45;entryPerimeter=0;" edge="1" parent="1" source="g135gdk5i4jA8f1i0pNu-47" target="g135gdk5i4jA8f1i0pNu-77">
          <mxGeometry relative="1" as="geometry" />
        </mxCell>
        <mxCell id="kg1gOOq2D4yfG9vJGdSN-4" value="events" style="text;html=1;align=center;verticalAlign=middle;resizable=0;points=[];autosize=1;strokeColor=none;fillColor=none;" vertex="1" parent="1">
          <mxGeometry x="630" y="168" width="60" height="30" as="geometry" />
        </mxCell>
        <mxCell id="kg1gOOq2D4yfG9vJGdSN-10" value="" style="group" vertex="1" connectable="0" parent="1">
          <mxGeometry x="830" y="55" width="60" height="225" as="geometry" />
        </mxCell>
        <mxCell id="kg1gOOq2D4yfG9vJGdSN-6" value="DB" style="text;html=1;align=center;verticalAlign=middle;resizable=0;points=[];autosize=1;strokeColor=none;fillColor=none;" vertex="1" parent="kg1gOOq2D4yfG9vJGdSN-10">
          <mxGeometry x="10" width="40" height="30" as="geometry" />
        </mxCell>
        <mxCell id="kg1gOOq2D4yfG9vJGdSN-7" value="" style="shape=cylinder3;whiteSpace=wrap;html=1;boundedLbl=1;backgroundOutline=1;size=15;" vertex="1" parent="kg1gOOq2D4yfG9vJGdSN-10">
          <mxGeometry y="65" width="60" height="110" as="geometry" />
        </mxCell>
        <mxCell id="kg1gOOq2D4yfG9vJGdSN-8" value="" style="shape=cylinder3;whiteSpace=wrap;html=1;boundedLbl=1;backgroundOutline=1;size=15;" vertex="1" parent="kg1gOOq2D4yfG9vJGdSN-10">
          <mxGeometry y="113" width="60" height="110" as="geometry" />
        </mxCell>
        <mxCell id="kg1gOOq2D4yfG9vJGdSN-9" value="" style="shape=cylinder3;whiteSpace=wrap;html=1;boundedLbl=1;backgroundOutline=1;size=15;" vertex="1" parent="kg1gOOq2D4yfG9vJGdSN-10">
          <mxGeometry y="155" width="60" height="70" as="geometry" />
        </mxCell>
        <mxCell id="kg1gOOq2D4yfG9vJGdSN-11" style="edgeStyle=elbowEdgeStyle;rounded=0;orthogonalLoop=1;jettySize=auto;html=1;elbow=vertical;curved=0;entryX=0;entryY=0.5;entryDx=0;entryDy=0;entryPerimeter=0;" edge="1" parent="1">
          <mxGeometry relative="1" as="geometry">
            <mxPoint x="440" y="238.14" as="sourcePoint" />
            <mxPoint x="830" y="238.14" as="targetPoint" />
          </mxGeometry>
        </mxCell>
        <mxCell id="kg1gOOq2D4yfG9vJGdSN-12" value="saveAll(attendance)" style="text;html=1;align=center;verticalAlign=middle;resizable=0;points=[];autosize=1;strokeColor=none;fillColor=none;" vertex="1" parent="1">
          <mxGeometry x="580" y="220" width="130" height="30" as="geometry" />
        </mxCell>
        <mxCell id="kg1gOOq2D4yfG9vJGdSN-13" value="return" style="html=1;verticalAlign=bottom;endArrow=open;dashed=1;endSize=8;edgeStyle=elbowEdgeStyle;elbow=vertical;curved=0;rounded=0;exitX=0;exitY=0;exitDx=0;exitDy=45;exitPerimeter=0;" edge="1" parent="1" source="kg1gOOq2D4yfG9vJGdSN-9">
          <mxGeometry relative="1" as="geometry">
            <mxPoint x="440" y="260" as="targetPoint" />
            <Array as="points">
              <mxPoint x="512.5" y="260" />
            </Array>
            <mxPoint x="582.5" y="260" as="sourcePoint" />
          </mxGeometry>
        </mxCell>
        <mxCell id="kg1gOOq2D4yfG9vJGdSN-20" value="list&amp;lt;event&amp;gt;&lt;br&gt;-&amp;gt;list&amp;lt;Attendance" style="text;html=1;align=center;verticalAlign=middle;resizable=0;points=[];autosize=1;strokeColor=none;fillColor=none;" vertex="1" parent="1">
          <mxGeometry x="460" y="198" width="120" height="40" as="geometry" />
        </mxCell>
      </root>
    </mxGraphModel>
  </diagram>
</mxfile>
